<svg version="1.1" id="Слой_1" xmlns="http://www.w3.org/2000/svg" x="0px" y="0px"
	 viewBox="0 0 216 90.1" style="enable-background:new 0 0 216 90.1;" xml:space="preserve">
<style type="text/css">
	.st0{fill-rule:evenodd;clip-rule:evenodd;fill:rgba(26,92,255,0.1);}
	.st1{fill-rule:evenodd;clip-rule:evenodd;fill:rgba(255, 255, 255, 0.6);}
	.st2{fill-rule:evenodd;clip-rule:evenodd;fill:rgba(255, 255, 255, 0.5);}
	.st3{fill:none;stroke:#1F64E7;stroke-width:2.5;}
	.st4{fill:none;stroke:#1F64E7;stroke-width:2.5;stroke-linecap:round;stroke-linejoin:round;}
	.st5{fill:none;stroke:#75A4FE;stroke-width:2.5;stroke-linecap:round;stroke-linejoin:round;}
</style>
<path class="st0" d="M46,82.1h91c0.5,0,1-0.1,1.5-0.2c0.5,0.1,1,0.2,1.5,0.2h52c3.9,0,7-3.1,7-7s-3.1-7-7-7h-6c-3.9,0-7-3.1-7-7
	s3.1-7,7-7h19c3.9,0,7-3.1,7-7s-3.1-7-7-7h-22c3.9,0,7-3.1,7-7s-3.1-7-7-7h-64c3.9,0,7-3.1,7-7s-3.1-7-7-7H62c-3.9,0-7,3.1-7,7
	s3.1,7,7,7H22c-3.9,0-7,3.1-7,7s3.1,7,7,7h25c3.9,0,7,3.1,7,7s-3.1,7-7,7H7c-3.9,0-7,3.1-7,7s3.1,7,7,7h39c-3.9,0-7,3.1-7,7
	S42.1,82.1,46,82.1z M209,82.1c3.9,0,7-3.1,7-7s-3.1-7-7-7s-7,3.1-7,7S205.1,82.1,209,82.1z"/>
<path class="st1" d="M96.1,60.4C96,60.9,96,61.5,96,62.1c0,6.6,5.4,12,12,12s12-5.4,12-12c0-0.6,0-1.1-0.1-1.7H149v26.7
	c0,1.7-1.3,3-3,3H70c-1.7,0-3-1.3-3-3V60.4H96.1z"/>
<path class="st1" d="M121,60.1c0,7.2-5.8,13-13,13c-7.2,0-13-5.8-13-13c0-0.2,0-0.5,0-0.7H67l9.6-28.3c0.4-1.2,1.6-2,2.8-2h57.2
	c1.3,0,2.4,0.8,2.8,2l9.6,28.3h-28C121,59.6,121,59.8,121,60.1z"/>
<path class="st2" d="M119.1,61c0,5.5-5,11-11.1,11s-11.1-5.5-11.1-11c0-0.2,0-1.4,0-1.5H76l8.2-19.8c0.4-0.9,1.3-1.6,2.4-1.6h42.8
	c1.1,0,2.1,0.6,2.4,1.6l8.2,19.8h-20.9C119.1,59.7,119.1,60.8,119.1,61z"/>
<path class="st3" d="M68.2,59.6v26.5c0,1,0.8,1.8,1.8,1.8h76c1,0,1.8-0.8,1.8-1.8V59.6l-9.5-28.1c-0.2-0.7-0.9-1.2-1.7-1.2H79.4
	c-0.8,0-1.4,0.5-1.7,1.2L68.2,59.6z"/>
<path class="st4" d="M81,59.1c3.9,0,8.2,0,12.7,0c1.9,0,1.9,1.3,1.9,2c0,6.6,5.5,12,12.3,12c6.8,0,12.3-5.4,12.3-12c0-0.7,0-2,1.9-2
	H147 M73.6,59.1H76H73.6z"/>
<path class="st5" d="M133.1,6.4L122,18.8 M107.1,2.1v16.8V2.1z M81,6.4l11.1,12.5L81,6.4z"/>
</svg>
