<?xml version="1.0" encoding="utf-8"?>
<!-- Generator: Adobe Illustrator 25.0.1, SVG Export Plug-In . SVG Version: 6.00 Build 0)  -->
<svg version="1.1" id="clock-rotate-left" xmlns="http://www.w3.org/2000/svg" xmlns:xlink="http://www.w3.org/1999/xlink" x="0px"
	 y="0px" viewBox="0 0 628 628" style="enable-background:new 0 0 628 628;" xml:space="preserve">
<path d="M314,58c141.4,0,256,114.6,256,256S455.4,570,314,570c-83.8,0-158.1-40.2-204.8-102.4c-5.3-7.1-3.9-17.1,3.2-22.4
	c7.1-5.3,17.1-3.9,22.4,3.2C175.7,502.8,240.7,538,314,538c123.7,0,224-100.3,224-224c0-123.7-100.3-224-224-224
	c-89.3,0-166.5,52.3-202.4,128l90.5,0c8.8,0,16,7.2,16,16s-7.2,16-16,16l-128,0c-8.8,0-16-7.2-16-16l0-128c0-8.8,7.2-16,16-16
	c8.8,0,16,7.2,16,16l0,83.1C133.6,111.3,217.6,58,314,58z M314,186c8.8,0,16,7.2,16,16l0,105.4l75.3,75.3c6.3,6.2,6.3,16.4,0,22.6
	c-6.2,6.3-16.4,6.3-22.6,0l-80-80c-3-3-5.6-7.1-5.6-11.3l0-112c0-8.8,8.1-16,16-16L314,186z"/>
</svg>
