<svg id="svg" version="1.1" xmlns="http://www.w3.org/2000/svg" xmlns:xlink="http://www.w3.org/1999/xlink" width="400" height="400" viewBox="0, 0, 400,400"><g id="svgg"><path id="path0" d="M92.645 147.935 C 92.062 149.088,91.035 151.953,90.973 152.600 C 90.951 152.820,90.793 154.034,90.621 155.297 C 89.885 160.707,92.310 167.717,96.485 172.246 C 99.052 175.031,99.301 174.768,99.080 169.500 C 98.910 165.443,98.646 163.692,97.784 160.900 C 97.192 158.981,98.342 160.128,99.589 162.700 C 101.675 167.004,101.748 167.186,101.481 167.452 C 101.342 167.591,101.492 168.081,101.814 168.542 C 102.136 169.002,102.400 169.855,102.400 170.439 C 102.400 177.095,104.397 173.996,104.685 166.893 C 104.964 160.012,102.793 154.754,97.679 149.930 C 94.371 146.809,93.408 146.428,92.645 147.935 M135.200 160.622 C 128.821 161.626,124.318 163.255,120.128 166.075 C 119.208 166.694,118.331 167.200,118.178 167.200 C 118.026 167.200,116.267 168.820,114.270 170.800 C 112.273 172.780,110.516 174.400,110.366 174.400 C 110.216 174.400,110.003 174.715,109.892 175.100 C 109.781 175.485,109.562 176.112,109.405 176.493 C 109.114 177.199,111.466 176.741,112.000 175.987 C 112.385 175.444,116.224 173.688,118.800 172.875 C 125.075 170.898,128.558 170.325,133.400 170.476 C 137.572 170.605,137.663 170.775,134.000 171.586 C 126.988 173.139,118.957 177.216,114.898 181.284 C 113.357 182.827,114.106 183.263,119.600 184.019 C 133.927 185.991,147.983 179.839,155.921 168.122 C 157.889 165.217,157.986 164.527,156.506 163.964 C 155.904 163.735,154.869 163.311,154.206 163.021 C 148.295 160.437,141.684 159.603,135.200 160.622 M46.595 170.358 C 34.649 176.674,25.721 187.081,21.678 199.400 C 20.933 201.671,20.628 202.840,19.625 207.277 C 19.075 209.709,19.075 221.491,19.625 223.923 C 20.628 228.360,20.933 229.529,21.678 231.800 C 23.314 236.784,28.055 245.586,29.973 247.200 C 30.104 247.310,30.986 248.340,31.933 249.489 C 53.908 276.138,99.197 270.135,115.223 238.449 C 117.471 234.006,117.032 233.587,114.383 237.648 C 90.643 274.056,35.315 262.197,26.816 218.880 C 26.274 216.117,26.280 205.686,26.825 203.277 C 27.058 202.245,27.439 200.590,27.670 199.600 C 30.227 188.665,37.812 177.746,47.199 171.491 C 52.022 168.277,51.694 167.662,46.595 170.358 M256.987 200.489 C 256.880 200.770,256.838 209.370,256.896 219.600 L 257.000 238.200 262.800 238.200 L 268.600 238.200 268.600 219.200 L 268.600 200.200 262.892 200.089 C 258.546 200.004,257.137 200.100,256.987 200.489 M301.600 219.200 L 301.600 238.422 307.300 238.311 L 313.000 238.200 313.200 230.200 C 313.423 221.269,313.547 220.828,316.107 219.804 C 317.462 219.262,317.757 219.261,318.789 219.795 C 320.562 220.711,320.586 220.832,320.800 229.800 L 321.000 238.200 326.900 238.311 L 332.800 238.421 332.800 229.157 C 332.800 217.765,332.455 216.097,329.434 212.896 C 326.318 209.595,320.924 208.662,316.200 210.608 C 314.880 211.151,313.670 211.597,313.511 211.598 C 313.352 211.599,313.172 209.035,313.111 205.900 L 313.000 200.200 307.300 200.089 L 301.600 199.978 301.600 219.200 M149.700 202.265 C 149.310 202.422,149.200 206.434,149.200 220.433 L 149.200 238.400 155.200 238.400 L 161.200 238.400 161.206 232.300 C 161.214 224.579,160.721 225.152,167.231 225.288 L 172.600 225.400 172.710 231.900 L 172.820 238.400 178.814 238.400 L 184.808 238.400 184.704 220.300 L 184.600 202.200 178.800 202.200 L 173.000 202.200 172.889 208.172 C 172.750 215.624,173.108 215.200,166.965 215.200 C 160.905 215.200,161.200 215.565,161.200 208.069 C 161.200 203.347,161.102 202.448,160.567 202.243 C 159.816 201.955,150.422 201.974,149.700 202.265 M278.999 204.089 C 278.898 204.370,278.767 206.130,278.707 208.000 L 278.600 211.400 276.902 211.523 C 274.853 211.671,274.712 212.026,274.881 216.601 L 275.000 219.800 276.800 220.000 L 278.600 220.200 278.830 225.800 C 279.208 234.995,281.114 237.504,288.693 238.782 C 291.737 239.295,295.744 238.832,297.460 237.767 L 298.320 237.234 297.028 233.517 L 295.735 229.800 293.910 229.929 C 290.907 230.141,290.346 229.205,290.487 224.211 L 290.600 220.200 293.400 220.000 L 296.200 219.800 296.319 216.601 C 296.501 211.685,296.485 211.658,293.297 211.518 L 290.600 211.400 290.400 207.600 L 290.200 203.800 284.692 203.689 C 280.502 203.604,279.139 203.700,278.999 204.089 M200.200 210.161 C 190.824 212.833,186.369 222.601,190.694 231.000 C 194.790 238.954,208.673 241.672,216.615 236.075 C 218.886 234.474,218.929 234.648,215.432 231.257 L 212.464 228.379 210.811 229.241 C 207.736 230.844,204.076 230.649,202.065 228.775 C 200.467 227.286,200.928 227.200,210.520 227.200 C 221.034 227.200,220.800 227.268,220.800 224.231 C 220.800 214.255,210.505 207.223,200.200 210.161 M229.800 210.403 C 223.413 212.077,223.355 212.159,225.462 216.595 C 227.018 219.873,227.542 220.343,228.927 219.703 C 231.249 218.630,232.216 218.400,234.400 218.400 C 237.087 218.400,238.529 218.926,239.374 220.216 C 240.207 221.487,239.908 221.600,235.710 221.600 C 225.335 221.600,220.011 226.636,222.969 233.651 C 225.310 239.203,236.772 241.077,239.701 236.387 C 240.431 235.218,240.800 235.428,240.800 237.011 L 240.800 238.423 246.300 238.311 L 251.800 238.200 251.924 231.000 C 252.132 218.919,251.072 215.159,246.596 212.104 C 242.970 209.629,235.599 208.882,229.800 210.403 M334.579 210.510 C 334.397 210.984,335.480 213.992,337.204 217.800 C 337.602 218.680,338.680 221.290,339.600 223.600 C 340.520 225.910,341.598 228.520,341.997 229.400 C 343.386 232.466,345.600 238.159,345.600 238.664 C 345.600 239.993,342.378 240.423,340.334 239.366 C 338.838 238.592,338.827 238.603,336.796 242.758 C 334.858 246.725,334.887 246.876,337.787 247.961 C 343.237 250.000,350.149 248.763,353.570 245.137 C 354.916 243.712,357.600 239.104,357.600 238.221 C 357.600 238.095,357.978 237.138,358.440 236.096 C 359.360 234.018,359.923 232.678,360.454 231.300 C 360.895 230.154,361.476 228.700,362.054 227.300 C 362.303 226.695,362.645 225.840,362.813 225.400 C 362.981 224.960,363.391 223.970,363.724 223.200 C 365.932 218.093,368.742 210.630,368.565 210.343 C 368.307 209.926,358.764 209.892,358.199 210.306 C 357.667 210.697,357.253 211.627,354.774 218.000 C 351.785 225.684,352.001 225.575,350.023 220.400 C 349.309 218.530,348.578 216.640,348.401 216.200 C 348.223 215.760,347.667 214.320,347.164 213.000 C 346.661 211.680,346.059 210.468,345.825 210.306 C 345.035 209.760,334.796 209.945,334.579 210.510 M207.326 218.047 C 207.807 218.293,208.511 218.878,208.891 219.347 C 210.248 221.022,209.892 221.200,205.200 221.200 C 200.510 221.200,200.150 221.020,201.509 219.352 C 202.897 217.649,205.434 217.079,207.326 218.047 M240.000 228.564 C 240.000 231.161,236.633 232.879,234.489 231.377 C 232.068 229.682,234.065 227.245,237.900 227.216 L 240.000 227.200 240.000 228.564 " stroke="none" fill="#4ea454" fill-rule="evenodd"></path><path id="path2" d="M69.200 151.009 C 47.667 154.143,31.145 166.474,22.200 186.085 C 20.840 189.068,21.889 188.386,24.301 184.719 C 38.327 163.397,65.052 153.783,88.293 161.698 C 91.317 162.728,91.291 162.749,90.721 159.687 C 90.400 157.958,90.382 156.562,90.661 155.020 C 91.164 152.246,91.160 152.240,87.800 151.674 C 79.420 150.260,75.344 150.115,69.200 151.009 M103.210 157.500 C 103.215 157.665,103.575 158.863,104.010 160.162 C 104.574 161.847,104.800 163.604,104.800 166.291 C 104.800 168.785,104.969 170.217,105.300 170.530 C 106.745 171.898,109.958 174.400,110.269 174.400 C 110.769 174.400,117.657 167.557,117.515 167.201 C 116.770 165.326,103.164 156.099,103.210 157.500 M97.600 160.272 C 97.600 160.421,97.771 161.096,97.981 161.772 C 98.190 162.447,98.568 163.834,98.820 164.854 C 99.153 166.201,99.554 166.833,100.291 167.169 C 101.543 167.739,101.861 167.470,101.316 166.299 C 98.793 160.873,97.600 158.939,97.600 160.272 M119.000 172.665 C 116.076 173.711,112.000 175.713,112.000 176.104 C 112.000 176.594,115.172 180.400,115.580 180.400 C 115.748 180.400,116.695 179.781,117.686 179.025 C 118.676 178.269,120.117 177.296,120.888 176.863 C 124.472 174.850,124.501 174.798,123.007 173.100 C 121.937 171.885,121.359 171.822,119.000 172.665 M119.229 186.146 C 134.408 212.284,127.286 244.378,102.573 261.200 C 100.310 262.740,98.266 264.000,98.030 264.000 C 97.793 264.000,97.600 264.180,97.600 264.400 C 97.600 265.045,98.219 264.882,101.469 263.381 C 114.995 257.133,125.828 245.688,131.361 231.800 C 133.053 227.555,133.328 226.630,134.871 220.000 C 135.197 218.600,135.384 214.889,135.384 209.800 C 135.384 204.711,135.197 201.000,134.871 199.600 C 133.741 194.745,133.457 193.683,132.530 190.840 C 131.217 186.811,130.078 184.399,129.490 184.403 C 129.221 184.405,126.533 184.336,123.518 184.249 L 118.037 184.093 119.229 186.146 M59.400 211.184 C 49.034 212.879,46.893 227.213,56.285 232.044 C 58.879 233.378,63.816 233.402,66.286 232.092 C 77.574 226.106,71.981 209.127,59.400 211.184 " stroke="none" fill="#fa4506" fill-rule="evenodd"></path></g></svg>