<svg xmlns="http://www.w3.org/2000/svg" style="display: none;">
    <symbol id="user-alien" viewBox="0 0 448 512">
        <path d="M206.7 378.1C211.8 382 217.9 383.1 224 383.1c6.08 0 12.16-1.957 17.27-5.873C282.6 346.3 384 259.6 384 173.6C384 65.83 312.3 0 224 0C135.6 0 64 65.83 64 173.6C64 259.6 165.4 346.3 206.7 378.1zM224 32c76.56 0 128 56.92 128 141.6c0 71.63-95.21 151.9-128 177.4c-32.88-25.57-128-105.8-128-177.4C96 88.92 147.4 32 224 32zM192 224c6.703 0 12.94-4.234 15.17-10.94c2.797-8.391-1.734-17.45-10.11-20.23l-48-16C140.6 174 131.6 178.5 128.8 186.9s1.734 17.45 10.11 20.23l48 16C188.6 223.7 190.3 224 192 224zM256 224c1.672 0 3.375-.2656 5.062-.8281l48-16c8.375-2.781 12.91-11.84 10.11-20.23S307.4 174 298.9 176.8l-48 16c-8.375 2.781-12.91 11.84-10.11 20.23C243.1 219.8 249.3 224 256 224zM320 352c-8.844 0-16 7.156-16 16S311.2 384 320 384c52.94 0 96 43.06 96 96H32c0-52.94 43.06-96 96-96c8.844 0 16-7.156 16-16S136.8 352 128 352c-70.58 0-128 57.39-128 127.1C0 497.6 14.36 512 32 512h384c17.64 0 32-14.39 32-32.03C448 409.4 390.6 352 320 352z"></path>
    </symbol>
    <symbol id="user-xmark" viewBox="0 0 640 512">
        <path d="M224 256c70.7 0 128-57.31 128-128S294.7 0 224 0C153.3 0 96 57.31 96 128S153.3 256 224 256zM224 32c52.94 0 96 43.06 96 96c0 52.93-43.06 96-96 96S128 180.9 128 128C128 75.06 171.1 32 224 32zM274.7 304H173.3C77.61 304 0 381.6 0 477.3C0 496.5 15.52 512 34.66 512h378.7C432.5 512 448 496.5 448 477.3C448 381.6 370.4 304 274.7 304zM413.3 480H34.66C33.2 480 32 478.8 32 477.3C32 399.4 95.4 336 173.3 336H274.7C352.6 336 416 399.4 416 477.3C416 478.8 414.8 480 413.3 480zM566.6 224l52.69-52.69c6.25-6.25 6.25-16.38 0-22.62s-16.38-6.25-22.62 0L544 201.4l-52.69-52.69c-6.25-6.25-16.38-6.25-22.62 0s-6.25 16.38 0 22.62L521.4 224l-52.69 52.69c-6.25 6.25-6.25 16.38 0 22.62c6.246 6.246 16.37 6.254 22.62 0L544 246.6l52.69 52.69c6.246 6.246 16.37 6.254 22.62 0c6.25-6.25 6.25-16.38 0-22.62L566.6 224z"></path>
    </symbol>
    <symbol id="angle-left" viewBox="0 0 256 512">
        <path d="M203.9 405.3c5.877 6.594 5.361 16.69-1.188 22.62c-6.562 5.906-16.69 5.375-22.59-1.188L36.1 266.7c-5.469-6.125-5.469-15.31 0-21.44l144-159.1c5.906-6.562 16.03-7.094 22.59-1.188c6.918 6.271 6.783 16.39 1.188 22.62L69.53 256L203.9 405.3z"></path>
    </symbol>
    <symbol id="angle-right" viewBox="0 0 256 512">
        <path d="M219.9 266.7L75.89 426.7c-5.906 6.562-16.03 7.094-22.59 1.188c-6.918-6.271-6.783-16.39-1.188-22.62L186.5 256L52.11 106.7C46.23 100.1 46.75 90.04 53.29 84.1C59.86 78.2 69.98 78.73 75.89 85.29l144 159.1C225.4 251.4 225.4 260.6 219.9 266.7z"></path>
    </symbol>
    <symbol id="angle-down" viewBox="0 0 384 512">
        <path d="M362.7 203.9l-159.1 144c-6.125 5.469-15.31 5.469-21.44 0L21.29 203.9C14.73 197.1 14.2 187.9 20.1 181.3C26.38 174.4 36.5 174.5 42.73 180.1L192 314.5l149.3-134.4c6.594-5.877 16.69-5.361 22.62 1.188C369.8 187.9 369.3 197.1 362.7 203.9z"></path>
    </symbol>
    <symbol id="person" viewBox="0 0 320 512">
        <path d="M103.1 56C103.1 25.07 129.1 0 159.1 0C190.9 0 216 25.07 216 56C216 86.93 190.9 112 159.1 112C129.1 112 103.1 86.93 103.1 56zM159.1 80C173.3 80 184 69.25 184 56C184 42.75 173.3 32 159.1 32C146.7 32 135.1 42.75 135.1 56C135.1 69.25 146.7 80 159.1 80zM127.1 352V496C127.1 504.8 120.8 512 111.1 512C103.2 512 95.1 504.8 95.1 496V202.1L46.11 295.5C41.95 303.3 32.25 306.3 24.46 302.1C16.67 297.9 13.72 288.3 17.89 280.5L76.73 170.3C90.64 144.3 117.8 128 147.3 128H172.7C202.2 128 229.4 144.3 243.3 170.3L302.1 280.5C306.3 288.3 303.3 297.9 295.5 302.1C287.7 306.3 278.1 303.3 273.9 295.5L224 202.2V496C224 504.8 216.8 512 208 512C199.2 512 192 504.8 192 496V352H127.1zM127.1 320H192V164C186 161.4 179.5 160 172.7 160H147.3C140.5 160 133.1 161.4 127.1 164V320z"></path>
    </symbol>
    <symbol id="plus" viewBox="0 0 448 512">
        <path d="M432 256C432 264.8 424.8 272 416 272h-176V448c0 8.844-7.156 16.01-16 16.01S208 456.8 208 448V272H32c-8.844 0-16-7.15-16-15.99C16 247.2 23.16 240 32 240h176V64c0-8.844 7.156-15.99 16-15.99S240 55.16 240 64v176H416C424.8 240 432 247.2 432 256z"></path>
    </symbol>
    <symbol id="right-from-bracket" viewBox="0 0 512 512">
        <path d="M176 448h-96C53.53 448 32 426.5 32 400v-288C32 85.53 53.53 64 80 64h96C184.8 64 192 56.84 192 48S184.8 32 176 32h-96C35.88 32 0 67.88 0 112v288C0 444.1 35.88 480 80 480h96C184.8 480 192 472.8 192 464S184.8 448 176 448zM502.6 233.4l-128-128c-9.156-9.156-22.91-11.91-34.88-6.938C327.8 103.4 320 115.1 320 128l.0918 63.1L176 192C149.5 192 128 213.5 128 240v32C128 298.5 149.5 320 176 320l144.1-.001L320 384c0 12.94 7.797 24.62 19.75 29.56c11.97 4.969 25.72 2.219 34.88-6.938l128-128C508.9 272.4 512 264.2 512 256S508.9 239.6 502.6 233.4zM352 384V288H176C167.2 288 160 280.8 160 272v-32C160 231.2 167.2 224 176 224H352l-.0039-96l128 128L352 384z"></path>
    </symbol>
    <symbol id="xmark" viewBox="0 0 320 512">
        <path d="M315.3 411.3c-6.253 6.253-16.37 6.253-22.63 0L160 278.6l-132.7 132.7c-6.253 6.253-16.37 6.253-22.63 0c-6.253-6.253-6.253-16.37 0-22.63L137.4 256L4.69 123.3c-6.253-6.253-6.253-16.37 0-22.63c6.253-6.253 16.37-6.253 22.63 0L160 233.4l132.7-132.7c6.253-6.253 16.37-6.253 22.63 0c6.253 6.253 6.253 16.37 0 22.63L182.6 256l132.7 132.7C321.6 394.9 321.6 405.1 315.3 411.3z"></path>
    </symbol>
    <symbol id="star" viewBox="0 0 576 512">
        <path d="M287.9 435.9L150.1 509.1C142.9 513.4 133.1 512.7 125.6 507.4C118.2 502.1 114.5 492.9 115.1 483.9L142.2 328.4L31.11 218.2C24.65 211.9 22.36 202.4 25.2 193.7C28.03 185.1 35.5 178.8 44.49 177.5L197.7 154.8L266.3 13.52C270.4 5.249 278.7 0 287.9 0C297.1 0 305.5 5.25 309.5 13.52L378.1 154.8L531.4 177.5C540.4 178.8 547.8 185.1 550.7 193.7C553.5 202.4 551.2 211.9 544.8 218.2L433.6 328.4L459.9 483.9C461.4 492.9 457.7 502.1 450.2 507.4C442.8 512.7 432.1 513.4 424.9 509.1L287.9 435.9zM226.5 168.8C221.9 178.3 212.9 184.9 202.4 186.5L64.99 206.8L164.8 305.6C172.1 312.9 175.5 323.4 173.8 333.7L150.2 473.2L272.8 407.7C282.3 402.6 293.6 402.6 303 407.7L425.6 473.2L402.1 333.7C400.3 323.4 403.7 312.9 411.1 305.6L510.9 206.8L373.4 186.5C362.1 184.9 353.1 178.3 349.3 168.8L287.9 42.32L226.5 168.8z"></path>
    </symbol>
    <symbol id="star-fill" viewBox="0 0 576 512">
        <path fill="rgba(26,92,255,0.6)" d="M316.9 18C311.6 7 300.4 0 288.1 0s-23.4 7-28.8 18L195 150.3 51.4 171.5c-12 1.8-22 10.2-25.7 21.7s-.7 24.2 7.9 32.7L137.8 329 113.2 474.7c-2 12 3 24.2 12.9 31.3s23 8 33.8 2.3l128.3-68.5 128.3 68.5c10.8 5.7 23.9 4.9 33.8-2.3s14.9-19.3 12.9-31.3L438.5 329 542.7 225.9c8.6-8.5 11.7-21.2 7.9-32.7s-13.7-19.9-25.7-21.7L381.2 150.3 316.9 18z"></path>
    </symbol>
    <symbol id="calendar-arrow-down" viewBox="0 0 448 512">
        <path d="M240 377.4L292.7 324.7C298.9 318.4 309.1 318.4 315.3 324.7C321.6 330.9 321.6 341.1 315.3 347.3L235.3 427.3C229.1 433.6 218.9 433.6 212.7 427.3L132.7 347.3C126.4 341.1 126.4 330.9 132.7 324.7C138.9 318.4 149.1 318.4 155.3 324.7L208 377.4V256C208 247.2 215.2 240 224 240C232.8 240 240 247.2 240 256L240 377.4zM128 64H320V16C320 7.164 327.2 0 336 0C344.8 0 352 7.164 352 16V64H384C419.3 64 448 92.65 448 128V448C448 483.3 419.3 512 384 512H64C28.65 512 0 483.3 0 448V128C0 92.65 28.65 64 64 64H96V16C96 7.164 103.2 0 112 0C120.8 0 128 7.164 128 16V64zM32 448C32 465.7 46.33 480 64 480H384C401.7 480 416 465.7 416 448V192H32V448zM32 128V160H416V128C416 110.3 401.7 96 384 96H64C46.33 96 32 110.3 32 128z"></path>
    </symbol>
    <symbol id="calendar-arrow-up" viewBox="0 0 448 512">
        <path d="M208 294.6L155.3 347.3C149.1 353.6 138.9 353.6 132.7 347.3C126.4 341.1 126.4 330.9 132.7 324.7L212.7 244.7C218.9 238.4 229.1 238.4 235.3 244.7L315.3 324.7C321.6 330.9 321.6 341.1 315.3 347.3C309.1 353.6 298.9 353.6 292.7 347.3L240 294.6V416C240 424.8 232.8 432 223.1 432C215.2 432 207.1 424.8 207.1 416L208 294.6zM128 64H320V16C320 7.164 327.2 0 336 0C344.8 0 352 7.164 352 16V64H384C419.3 64 448 92.65 448 128V448C448 483.3 419.3 512 384 512H64C28.65 512 0 483.3 0 448V128C0 92.65 28.65 64 64 64H96V16C96 7.164 103.2 0 112 0C120.8 0 128 7.164 128 16V64zM32 448C32 465.7 46.33 480 64 480H384C401.7 480 416 465.7 416 448V192H32V448zM32 128V160H416V128C416 110.3 401.7 96 384 96H64C46.33 96 32 110.3 32 128z"></path>
    </symbol>
    <symbol id="split" viewBox="0 0 512 512">
        <path d="M507.3 372.7c6.25 6.25 6.25 16.38 0 22.62l-80 80C424.2 478.4 420.1 480 416 480s-8.188-1.562-11.31-4.688c-6.25-6.25-6.25-16.38 0-22.62L457.4 400h-124.1c-12.62 0-25-5.125-33.94-14.06L185.4 272H24c-8.844 0-16-7.156-16-16s7.156-16 16-16h161.4l113.9-113.9C308.3 117.1 320.6 112 333.3 112h124.1l-52.69-52.69c-6.25-6.25-6.25-16.38 0-22.62s16.38-6.25 22.62 0l80 80c6.25 6.25 6.25 16.38 0 22.62l-80 80C424.2 222.4 420.1 224 416 224s-8.188-1.562-11.31-4.688c-6.25-6.25-6.25-16.38 0-22.62L457.4 144h-124.1c-4.219 0-8.344 1.719-11.31 4.688L214.6 256l107.3 107.3C324.9 366.3 329 368 333.3 368h124.1l-52.69-52.69c-6.25-6.25-6.25-16.38 0-22.62s16.38-6.25 22.62 0L507.3 372.7z"></path>
    </symbol>
    <symbol id="merge" viewBox="0 0 512 512">
        <path d="M0 80C0 71.16 7.164 64 16 64H143.7C159.1 64 173.5 71.35 182.5 83.77L291.4 233.4C294.4 237.6 299.2 239.1 304.3 239.1H457.4L404.7 187.3C398.4 181.1 398.4 170.9 404.7 164.7C410.9 158.4 421.1 158.4 427.3 164.7L507.3 244.7C513.6 250.9 513.6 261.1 507.3 267.3L427.3 347.3C421.1 353.6 410.9 353.6 404.7 347.3C398.4 341.1 398.4 330.9 404.7 324.7L457.4 271.1H304.3C299.2 271.1 294.4 274.4 291.4 278.6L182.5 428.2C173.5 440.6 159.1 448 143.7 448H16C7.164 448 0 440.8 0 432C0 423.2 7.164 416 16 416H143.7C148.8 416 153.6 413.5 156.6 409.4L265.5 259.8C266.4 258.5 267.4 257.2 268.5 255.1C267.4 254.8 266.4 253.5 265.5 252.2L156.6 102.6C153.6 98.45 148.8 95.1 143.7 95.1H16C7.164 95.1 0 88.84 0 79.1V80z"></path>
    </symbol>
</svg>