<?xml version="1.0" encoding="utf-8"?>
<!-- Generator: Adobe Illustrator 25.0.1, SVG Export Plug-In . SVG Version: 6.00 Build 0)  -->
<svg version="1.0" id="katman_1" xmlns="http://www.w3.org/2000/svg" xmlns:xlink="http://www.w3.org/1999/xlink" x="0px" y="0px"
	 viewBox="0 0 964 622.7" style="enable-background:new 0 0 964 622.7;" xml:space="preserve">
<style type="text/css">
	.st0{fill-rule:evenodd;clip-rule:evenodd;}
</style>
<g>
	<path class="st0" fill="#1890ff" d="M546.7,364h45.9l17.8-74.5c2.8-10.1,5.7-17.6,9.6-21.2c9.3-8.6,34.4-7.2,34.4-7.2l10.2-42.1
		c-15.9,0.1-40.6-0.2-55.9,4c-8.8,2.4-18.2,9.2-23.5,14.7c-9.7,10.1-15.5,31-15.5,31L546.7,364L546.7,364z M149.8,257.1h167.7
		c9.8,0.2,17.6,4,21.2,9c4.4,6.1,9.1,15.3,1.9,32.6c-7.7,18.4-21.5,24-36,24.4h-30l12.4-51.9h-46.2l-41.3,173.2h45.9l19.3-80.5
		c0,0,13.4,0.1,30.6,0.1c13.4-0.3,29-1.9,43.8-9.6c16-8.3,26.9-22.2,33.7-34.7c6.3-11.5,10.4-30.3,11.3-40.6
		c0.8-9.1,2-24.3-9.1-39.1c-5-6.7-16.1-15-27.3-17.6c-12.2-2.9-29.3-3-29.3-3H144c-26.9,0.3-41.2,9.5-49.2,17.7
		c-8.6,8.8-13,21-13,31.6c0,10,2.7,20.7,8.5,27.1c5.3,5.8,14.2,12.3,31.8,13.5h30.6c0,0,4.2,0.1,6.6,1.2c2.3,1,3.9,3.8,3.5,6.5
		c-0.5,3.3-1.6,7.5-12.8,7.9H63l-14.8,39.3h104.6c13.9-0.2,39.7-2.8,51.4-23c4.4-7.5,8.3-21.7,8.4-32.1c0.1-10.6-3.5-17.7-5.7-21.4
		c-2.8-4.8-8.2-10.3-18.9-13.9c-5.6-1.9-17.8-2.2-17.8-2.2h-28.8c-5.6,0-9.9-1.7-9.3-7.2c0.3-3.2,2.8-5.8,5.9-6.7
		C140.4,256.9,149.8,257.1,149.8,257.1L149.8,257.1z M481.6,249.4c-11.4,0.1-21.3,4.4-30.9,13.7c-9.2,8.8-14,22.6-15,34.7
		c-0.6,7.5,1.5,17.9,6.5,24.3c4.9,6.3,14.8,11,24.2,10.8c14.2-0.4,24-4.7,31.8-13.3c9.2-10.1,15.3-25.2,14.9-39.5
		c-0.2-7.5-1.8-15.2-8.5-21.9C497.8,251.4,488.6,249.3,481.6,249.4l5.9-34.1c19-0.2,39.9,5,53.3,17.8c13.4,12.9,16.1,29.9,15.9,43.9
		c-0.3,17.5-6.4,41.5-27.8,64.6c-18.9,20.4-51.8,28.3-74.5,27.3c-22.8-1-39.6-8.2-52-21c-10.8-11.2-14.7-24.2-14.7-40.7
		c0-14.6,4.7-33.5,18.6-52.1c16.4-21.8,47.8-39.4,81.2-39.9L481.6,249.4z M687,178.2h46.3l-10,41.4h35.1l-9.7,41h-35.1l-10.4,45.6
		c-1.7,9.3-0.1,14,5.2,17.1c2.2,1.3,9.5,1.9,9.5,1.9h99.9c11.1-0.2,19.1-1.2,19.5-8.6c0.4-7.6-9.1-7.4-9.1-7.4h-28.4
		c-14.9-0.7-27.3-4.8-33.2-11.1c-5.1-5.5-9.8-13.6-9.5-29.3c0.4-17.8,9.8-30.5,13.9-34.4c4.1-3.9,19.2-15,41.1-14.7h103.7L901.4,257
		h-85.1c-5.6,0.2-8.1,1-9.7,3c-1.6,2-2.4,5.2-1.3,7.8c1,2.4,3.5,3.3,10.6,3.7h26.6c13.6,0.7,24.8,2.9,31.6,8.5
		c6.1,5.2,12.1,11.9,12.1,29.2c0,19.5-9.6,32.2-16.2,38.8c-8.1,8.3-19.3,14.3-52.9,16H693.7c-13.4-0.2-24.3,0.4-34.6-11.3
		c-10.2-11.7-6.7-26.3-5.8-34.5L687,178.2L687,178.2z"/>
</g>
</svg>
